<?xml version="1.0" encoding="UTF-8" standalone="no"?>
<svg
   xmlns:dc="http://purl.org/dc/elements/1.1/"
   xmlns:cc="http://creativecommons.org/ns#"
   xmlns:rdf="http://www.w3.org/1999/02/22-rdf-syntax-ns#"
   xmlns:svg="http://www.w3.org/2000/svg"
   xmlns="http://www.w3.org/2000/svg"
   xmlns:sodipodi="http://sodipodi.sourceforge.net/DTD/sodipodi-0.dtd"
   xmlns:inkscape="http://www.inkscape.org/namespaces/inkscape"
   width="259.23645mm"
   height="188.63734mm"
   viewBox="0 0 259.23645 188.63734"
   version="1.1"
   id="svg8"
   inkscape:version="1.0.2 (e86c870879, 2021-01-15, custom)"
   sodipodi:docname="m5tm_model.svg">
  <defs
     id="defs2">
    <rect
       x="-158.75"
       y="65.616669"
       width="43.920834"
       height="49.212502"
       id="rect1155" />
    <rect
       x="-143.93333"
       y="35.454166"
       width="57.150002"
       height="40.216667"
       id="rect1103" />
    <rect
       x="-152.39999"
       y="16.404167"
       width="96.837502"
       height="58.737499"
       id="rect1051" />
    <rect
       x="-120.27129"
       y="-34.745041"
       width="87.664406"
       height="36.348656"
       id="rect62" />
    <rect
       x="-120.27129"
       y="-34.745041"
       width="87.664406"
       height="36.348656"
       id="rect62-1" />
    <rect
       x="-120.27129"
       y="-34.745041"
       width="87.664406"
       height="36.348656"
       id="rect75" />
    <rect
       x="-120.27129"
       y="-34.745041"
       width="87.664406"
       height="36.348656"
       id="rect62-1-1" />
    <rect
       x="-120.27129"
       y="-34.745041"
       width="87.664406"
       height="36.348656"
       id="rect111" />
    <rect
       x="-120.27129"
       y="-34.745041"
       width="87.664406"
       height="36.348656"
       id="rect62-1-9" />
    <rect
       x="-120.27129"
       y="-34.745041"
       width="87.664406"
       height="36.348656"
       id="rect111-1" />
    <rect
       x="-120.27129"
       y="-34.745041"
       width="87.664406"
       height="36.348656"
       id="rect62-1-4" />
    <rect
       x="-120.27129"
       y="-34.745041"
       width="87.664406"
       height="36.348656"
       id="rect111-17" />
    <rect
       x="-152.39999"
       y="16.404167"
       width="96.837502"
       height="58.737499"
       id="rect1051-7" />
    <rect
       x="-152.39999"
       y="16.404167"
       width="96.837502"
       height="58.737499"
       id="rect1067" />
    <rect
       x="-143.93333"
       y="35.454166"
       width="57.150002"
       height="40.216667"
       id="rect1103-2" />
    <rect
       x="-143.93333"
       y="35.454166"
       width="57.150002"
       height="40.216667"
       id="rect1119" />
  </defs>
  <sodipodi:namedview
     id="base"
     pagecolor="#ffffff"
     bordercolor="#666666"
     borderopacity="1.0"
     inkscape:pageopacity="0.0"
     inkscape:pageshadow="2"
     inkscape:zoom="0.5"
     inkscape:cx="454.83696"
     inkscape:cy="347.5319"
     inkscape:document-units="mm"
     inkscape:current-layer="layer1"
     inkscape:document-rotation="0"
     showgrid="false"
     inkscape:snap-global="false"
     inkscape:window-width="1368"
     inkscape:window-height="850"
     inkscape:window-x="-6"
     inkscape:window-y="-6"
     inkscape:window-maximized="1" />
  <metadata
     id="metadata5">
    <rdf:RDF>
      <cc:Work
         rdf:about="">
        <dc:format>image/svg+xml</dc:format>
        <dc:type
           rdf:resource="http://purl.org/dc/dcmitype/StillImage" />
        <dc:title></dc:title>
      </cc:Work>
    </rdf:RDF>
  </metadata>
  <g
     inkscape:label="Ebene 1"
     inkscape:groupmode="layer"
     id="layer1"
     transform="translate(-0.27641949,5.5286556)">
    <ellipse
       style="fill:#f23ce5;fill-opacity:1;stroke:#00cfdd;stroke-width:1.19062;paint-order:stroke fill markers"
       id="path14-2"
       cx="95.401192"
       cy="150.8125"
       rx="22.111607"
       ry="22.489584" />
    <ellipse
       style="fill:#005dff;fill-opacity:1;stroke:#00cfdd;stroke-width:1.19062;paint-order:stroke fill markers"
       id="path10"
       cx="69.131844"
       cy="73.705353"
       rx="28.915178"
       ry="27.214285" />
    <ellipse
       style="fill:#9e04b1;fill-opacity:1;stroke:#00cfdd;stroke-width:1.19062;paint-order:stroke fill markers"
       id="path14"
       cx="176.20195"
       cy="160.02379"
       rx="22.111607"
       ry="22.489584" />
    <rect
       style="fill:#00ffff;stroke:#00cfdd;stroke-width:1.19062;paint-order:stroke fill markers"
       id="rect38"
       width="51.404762"
       height="48.002975"
       x="207.51279"
       y="80.682358" />
    <rect
       style="fill:#00ffff;stroke:#00cfdd;stroke-width:1.19062;paint-order:stroke fill markers"
       id="rect38-2"
       width="51.404762"
       height="48.002975"
       x="118.23633"
       y="26.868736" />
    <text
       xml:space="preserve"
       id="text60"
       style="font-size:7.05556px;line-height:1.25;font-family:sans-serif;letter-spacing:0px;white-space:pre;shape-inside:url(#rect62);"
       transform="translate(172.57016,103.48568)"><tspan
         x="-120.27148"
         y="-28.307139"><tspan>electrons</tspan></tspan></text>
    <text
       xml:space="preserve"
       id="text60-3"
       style="font-size:7.05556px;line-height:1.25;font-family:sans-serif;text-align:center;letter-spacing:0px;white-space:pre;shape-inside:url(#rect62-1)"
       transform="translate(170.84885,174.51014)"
       x="14.688174"
       y="0"><tspan
         x="-88.06149"
         y="-28.307139"><tspan
           style="text-align:center;text-anchor:middle">optical
</tspan></tspan><tspan
         x="-91.454911"
         y="-19.487689"><tspan
           style="text-align:center;text-anchor:middle">phonons</tspan></tspan></text>
    <text
       xml:space="preserve"
       id="text60-3-9"
       style="font-size:7.05556px;line-height:1.25;font-family:sans-serif;text-align:center;letter-spacing:0px;white-space:pre;shape-inside:url(#rect62-1-1);"
       transform="translate(250.97379,184.94575)"
       x="14.688174"
       y="0"><tspan
         x="-92.641748"
         y="-28.307139"><tspan
           style="text-align:center;text-anchor:middle">accoustic
</tspan></tspan><tspan
         x="-91.454911"
         y="-19.487689"><tspan
           style="text-align:center;text-anchor:middle">phonons</tspan></tspan></text>
    <text
       xml:space="preserve"
       id="text60-3-8"
       style="font-size:7.05556px;line-height:1.25;font-family:sans-serif;text-align:center;letter-spacing:0px;white-space:pre;shape-inside:url(#rect62-1-9);"
       transform="translate(307.10039,124.54284)"
       x="14.688174"
       y="0"><tspan
         x="-91.573767"
         y="-28.307139"><tspan
           style="shape-inside:url(#rect62-1-9)">localized
</tspan></tspan><tspan
         x="-92.71754"
         y="-19.487689"><tspan
           style="shape-inside:url(#rect62-1-9)">magnetic
</tspan></tspan><tspan
         x="-93.005205"
         y="-10.668238"><tspan
           style="shape-inside:url(#rect62-1-9)">moments</tspan></tspan></text>
    <text
       xml:space="preserve"
       id="text60-3-7"
       style="font-size:7.05556px;line-height:1.25;font-family:sans-serif;text-align:center;letter-spacing:0px;white-space:pre;shape-inside:url(#rect62-1-4);"
       transform="translate(219.97053,71.623474)"
       x="14.688174"
       y="0"><tspan
         x="-91.284379"
         y="-28.307139"><tspan
           style="shape-inside:url(#rect62-1-4)">itinerant
</tspan></tspan><tspan
         x="-92.71754"
         y="-19.487689"><tspan
           style="shape-inside:url(#rect62-1-4)">magnetic
</tspan></tspan><tspan
         x="-93.005205"
         y="-10.668238"><tspan
           style="shape-inside:url(#rect62-1-4)">moments
</tspan></tspan></text>
    <path
       style="fill:none;stroke:#000000;stroke-width:1;stroke-linecap:butt;stroke-linejoin:miter;stroke-miterlimit:4;stroke-dasharray:none;stroke-opacity:1"
       d="m 78.491283,105.0893 c 5.879928,18.17433 5.879928,18.17433 5.879928,18.17433"
       id="path1027" />
    <path
       style="fill:none;stroke:#000000;stroke-width:1;stroke-linecap:butt;stroke-linejoin:miter;stroke-miterlimit:4;stroke-dasharray:none;stroke-opacity:1"
       d="m 121.78895,155.87051 c 26.19241,2.13816 26.19241,2.13816 26.19241,2.13816"
       id="path1029" />
    <path
       style="fill:none;stroke:#000000;stroke-width:1;stroke-linecap:butt;stroke-linejoin:miter;stroke-miterlimit:4;stroke-dasharray:none;stroke-opacity:1"
       d="M 77.956743,44.151846 C 108.96001,33.995604 108.96001,33.995604 108.96001,33.995604"
       id="path1031" />
    <path
       style="fill:none;stroke:#000000;stroke-width:1;stroke-linecap:butt;stroke-linejoin:miter;stroke-miterlimit:4;stroke-dasharray:none;stroke-opacity:1"
       d="m 203.03888,153.73235 c 16.57071,-18.17432 16.57071,-18.17432 16.57071,-18.17432"
       id="path1033" />
    <path
       style="fill:none;stroke:#000000;stroke-width:1;stroke-linecap:butt;stroke-linejoin:miter;stroke-miterlimit:4;stroke-dasharray:2, 2;stroke-dashoffset:0;stroke-opacity:1"
       d="m 176.31193,37.737378 c 46.5049,33.14142 46.5049,33.14142 46.5049,33.14142"
       id="path1035" />
    <g
       style="font-style:normal;font-weight:400;font-size:12px;font-family:'DejaVu Serif';fill:none;stroke:#000000;stroke-width:1;stroke-linecap:square;stroke-linejoin:miter;stroke-miterlimit:2;stroke-opacity:1"
       stroke-miterlimit="2"
       font-size="12"
       font-weight="400"
       font-style="normal"
       id="g3363"
       transform="matrix(0.0983355,0.16658668,-0.13706093,0.08090656,29.792681,-42.92737)"
       inkscape:transform-center-x="29.104167"
       inkscape:transform-center-y="-17.991667">
      <polyline
         style="fill:none;stroke:#ffa500;stroke-width:2;stroke-miterlimit:2;stroke-dasharray:none;stroke-opacity:1"
         vector-effect="non-scaling-stroke"
         points="46.1276,208.5 46.224,208.5 46.3204,208.5 46.4168,208.5 46.5132,208.5 46.6096,208.5 46.706,208.5 46.8024,208.5 46.8988,208.5 46.9951,208.5 47.0915,208.5 47.1879,208.5 47.2843,208.5 47.3807,208.5 47.4771,208.5 47.5735,208.5 47.6699,208.5 47.7663,208.5 47.8626,208.5 47.959,208.5 48.0554,208.5 48.1518,208.5 48.2482,208.5 48.3446,208.5 48.441,208.5 48.5374,208.5 48.6338,208.5 48.7302,208.5 48.8265,208.5 48.9229,208.5 49.0193,208.5 49.1157,208.5 49.2121,208.5 49.3085,208.5 49.4049,208.5 49.5013,208.5 49.5977,208.5 49.694,208.5 49.7904,208.5 49.8868,208.5 49.9832,208.5 50.0796,208.5 50.176,208.5 50.2724,208.5 50.3688,208.5 50.4652,208.5 50.5616,208.5 50.6579,208.5 50.7543,208.5 50.8507,208.5 50.9471,208.5 51.0435,208.5 51.1399,208.5 51.2363,208.5 51.3327,208.5 51.4291,208.5 51.5254,208.5 51.6218,208.5 51.7182,208.5 51.8146,208.5 51.911,208.5 52.0074,208.5 52.1038,208.5 52.2002,208.5 52.2966,208.5 52.393,208.5 52.4893,208.5 52.5857,208.5 52.6821,208.5 52.7785,208.5 52.8749,208.5 52.9713,208.5 53.0677,208.5 53.1641,208.5 53.2605,208.5 53.3568,208.5 53.4532,208.5 53.5496,208.5 53.646,208.5 53.7424,208.5 53.8388,208.5 53.9352,208.5 54.0316,208.5 54.128,208.5 54.2244,208.5 54.3207,208.5 54.4171,208.5 54.5135,208.5 54.6099,208.5 54.7063,208.5 54.8027,208.5 54.8991,208.5 54.9955,208.5 55.0919,208.5 55.1882,208.5 55.2846,208.5 55.381,208.5 55.4774,208.5 55.5738,208.5 55.6702,208.5 55.7666,208.5 55.863,208.5 55.9594,208.5 56.0558,208.5 56.1521,208.5 56.2485,208.5 56.3449,208.5 56.4413,208.5 56.5377,208.5 56.6341,208.5 56.7305,208.5 56.8269,208.5 56.9233,208.5 57.0196,208.5 57.116,208.5 57.2124,208.5 57.3088,208.5 57.4052,208.5 57.5016,208.5 57.598,208.5 57.6944,208.5 57.7908,208.5 57.8872,208.5 57.9835,208.5 58.0799,208.5 58.1763,208.5 58.2727,208.5 58.3691,208.5 58.4655,208.5 58.5619,208.5 58.6583,208.5 58.7547,208.5 58.851,208.5 58.9474,208.5 59.0438,208.5 59.1402,208.5 59.2366,208.5 59.333,208.5 59.4294,208.5 59.5258,208.5 59.6222,208.5 59.7186,208.5 59.8149,208.5 59.9113,208.5 60.0077,208.5 60.1041,208.5 60.2005,208.5 60.2969,208.5 60.3933,208.5 60.4897,208.5 60.5861,208.5 60.6824,208.5 60.7788,208.5 60.8752,208.5 60.9716,208.5 61.068,208.5 61.1644,208.5 61.2608,208.5 61.3572,208.5 61.4536,208.5 61.5499,208.5 61.6463,208.5 61.7427,208.5 61.8391,208.5 61.9355,208.5 62.0319,208.5 62.1283,208.5 62.2247,208.5 62.3211,208.5 62.4175,208.5 62.5138,208.5 62.6102,208.5 62.7066,208.5 62.803,208.5 62.8994,208.5 62.9958,208.5 63.0922,208.5 63.1886,208.5 63.285,208.5 63.3813,208.5 63.4777,208.5 63.5741,208.5 63.6705,208.5 63.7669,208.5 63.8633,208.5 63.9597,208.5 64.0561,208.5 64.1525,208.5 64.2489,208.5 64.3452,208.5 64.4416,208.5 64.538,208.5 64.6344,208.5 64.7308,208.5 64.8272,208.5 64.9236,208.5 65.02,208.5 65.1164,208.5 65.2127,208.5 65.3091,208.5 65.4055,208.5 65.5019,208.5 65.5983,208.5 65.6947,208.5 65.7911,208.5 65.8875,208.5 65.9839,208.5 66.0803,208.5 66.1766,208.5 66.273,208.5 66.3694,208.5 66.4658,208.5 66.5622,208.5 66.6586,208.5 66.755,208.5 66.8514,208.5 66.9478,208.5 67.0441,208.5 67.1405,208.5 67.2369,208.5 67.3333,208.5 67.4297,208.5 67.5261,208.5 67.6225,208.5 67.7189,208.5 67.8153,208.5 67.9117,208.5 68.008,208.5 68.1044,208.5 68.2008,208.5 68.2972,208.5 68.3936,208.5 68.49,208.5 68.5864,208.5 68.6828,208.5 68.7792,208.5 68.8755,208.5 68.9719,208.5 69.0683,208.5 69.1647,208.5 69.2611,208.5 69.3575,208.5 69.4539,208.5 69.5503,208.5 69.6467,208.5 69.7431,208.5 69.8394,208.5 69.9358,208.5 70.0322,208.5 70.1286,208.5 70.225,208.5 70.3214,208.5 70.4178,208.5 70.5142,208.5 70.6106,208.5 70.7069,208.5 70.8033,208.5 70.8997,208.5 70.9961,208.5 71.0925,208.5 71.1889,208.5 71.2853,208.5 71.3817,208.5 71.4781,208.5 71.5745,208.5 71.6708,208.5 71.7672,208.5 71.8636,208.5 71.96,208.5 72.0564,208.5 72.1528,208.5 72.2492,208.5 72.3456,208.5 72.442,208.5 72.5383,208.5 72.6347,208.5 72.7311,208.5 72.8275,208.5 72.9239,208.5 73.0203,208.5 73.1167,208.5 73.2131,208.5 73.3095,208.5 73.4059,208.5 73.5022,208.5 73.5986,208.5 73.695,208.5 73.7914,208.5 73.8878,208.5 73.9842,208.5 74.0806,208.5 74.177,208.5 74.2734,208.5 74.3697,208.5 74.4661,208.5 74.5625,208.5 74.6589,208.5 74.7553,208.5 74.8517,208.5 74.9481,208.5 75.0445,208.5 75.1409,208.5 75.2372,208.5 75.3336,208.5 75.43,208.5 75.5264,208.5 75.6228,208.5 75.7192,208.5 75.8156,208.5 75.912,208.5 76.0084,208.5 76.1048,208.5 76.2011,208.5 76.2975,208.5 76.3939,208.5 76.4903,208.5 76.5867,208.5 76.6831,208.5 76.7795,208.5 76.8759,208.5 76.9723,208.5 77.0686,208.5 77.165,208.5 77.2614,208.5 77.3578,208.5 77.4542,208.5 77.5506,208.5 77.647,208.5 77.7434,208.5 77.8398,208.5 77.9362,208.5 78.0325,208.5 78.1289,208.5 78.2253,208.5 78.3217,208.5 78.4181,208.5 78.5145,208.5 78.6109,208.5 78.7073,208.5 78.8037,208.5 78.9,208.5 78.9964,208.5 79.0928,208.5 79.1892,208.5 79.2856,208.5 79.382,208.5 79.4784,208.5 79.5748,208.5 79.6712,208.5 79.7676,208.5 79.8639,208.5 79.9603,208.5 80.0567,208.5 80.1531,208.5 80.2495,208.5 80.3459,208.5 80.4423,208.5 80.5387,208.5 80.6351,208.5 80.7314,208.5 80.8278,208.5 80.9242,208.5 81.0206,208.5 81.117,208.5 81.2134,208.5 81.3098,208.5 81.4062,208.5 81.5026,208.5 81.599,208.5 81.6953,208.5 81.7917,208.5 81.8881,208.5 81.9845,208.5 82.0809,208.5 82.1773,208.5 82.2737,208.5 82.3701,208.5 82.4665,208.5 82.5628,208.5 82.6592,208.5 82.7556,208.5 82.852,208.5 82.9484,208.5 83.0448,208.5 83.1412,208.5 83.2376,208.5 83.334,208.5 83.4304,208.5 83.5267,208.5 83.6231,208.5 83.7195,208.5 83.8159,208.5 83.9123,208.5 84.0087,208.5 84.1051,208.5 84.2015,208.5 84.2979,208.5 84.3942,208.5 84.4906,208.5 84.587,208.5 84.6834,208.5 84.7798,208.5 84.8762,208.5 84.9726,208.5 85.069,208.5 85.1654,208.5 85.2618,208.5 85.3581,208.5 85.4545,208.5 85.5509,208.5 85.6473,208.5 85.7437,208.5 85.8401,208.5 85.9365,208.5 86.0329,208.5 86.1293,208.5 86.2256,208.5 86.322,208.5 86.4184,208.5 86.5148,208.5 86.6112,208.5 86.7076,208.5 86.804,208.5 86.9004,208.5 86.9968,208.5 87.0932,208.5 87.1895,208.5 87.2859,208.5 87.3823,208.5 87.4787,208.5 87.5751,208.5 87.6715,208.5 87.7679,208.5 87.8643,208.5 87.9607,208.5 88.057,208.5 88.1534,208.5 88.2498,208.5 88.3462,208.5 88.4426,208.5 88.539,208.5 88.6354,208.5 88.7318,208.5 88.8282,208.5 88.9245,208.5 89.0209,208.5 89.1173,208.5 89.2137,208.5 89.3101,208.5 89.4065,208.5 89.5029,208.5 89.5993,208.5 89.6957,208.5 89.7921,208.5 89.8884,208.5 89.9848,208.5 90.0812,208.5 90.1776,208.5 90.274,208.5 90.3704,208.5 90.4668,208.5 90.5632,208.5 90.6596,208.5 90.7559,208.5 90.8523,208.5 90.9487,208.5 91.0451,208.5 91.1415,208.5 91.2379,208.5 91.3343,208.5 91.4307,208.5 91.5271,208.5 91.6235,208.5 91.7198,208.5 91.8162,208.5 91.9126,208.5 92.009,208.5 92.1054,208.5 92.2018,208.5 92.2982,208.5 92.3946,208.5 92.491,208.5 92.5873,208.5 92.6837,208.5 92.7801,208.5 92.8765,208.5 92.9729,208.5 93.0693,208.5 93.1657,208.5 93.2621,208.5 93.3585,208.5 93.4549,208.5 93.5512,208.5 93.6476,208.5 93.744,208.5 93.8404,208.5 93.9368,208.5 94.0332,208.5 94.1296,208.5 94.226,208.5 94.3224,208.5 94.4187,208.5 94.5151,208.5 94.6115,208.5 94.7079,208.5 94.8043,208.5 94.9007,208.5 94.9971,208.5 95.0935,208.5 95.1899,208.5 95.2863,208.5 95.3826,208.5 95.479,208.5 95.5754,208.5 95.6718,208.5 95.7682,208.5 95.8646,208.5 95.961,208.5 96.0574,208.5 96.1538,208.5 96.2501,208.5 96.3465,208.5 96.4429,208.5 96.5393,208.5 96.6357,208.5 96.7321,208.5 96.8285,208.5 96.9249,208.5 97.0213,208.5 97.1177,208.5 97.214,208.5 97.3104,208.5 97.4068,208.5 97.5032,208.5 97.5996,208.5 97.696,208.5 97.7924,208.5 97.8888,208.5 97.9852,208.5 98.0815,208.5 98.1779,208.5 98.2743,208.5 98.3707,208.5 98.4671,208.5 98.5635,208.5 98.6599,208.5 98.7563,208.5 98.8527,208.5 98.9491,208.5 99.0454,208.5 99.1418,208.5 99.2382,208.5 99.3346,208.5 99.431,208.5 99.5274,208.5 99.6238,208.5 99.7202,208.5 99.8166,208.5 99.9129,208.5 100.009,208.5 100.106,208.5 100.202,208.5 100.299,208.5 100.395,208.5 100.491,208.5 100.588,208.5 100.684,208.5 100.78,208.5 100.877,208.5 100.973,208.5 101.07,208.5 101.166,208.5 101.262,208.5 101.359,208.5 101.455,208.5 101.552,208.5 101.648,208.5 101.744,208.5 101.841,208.5 101.937,208.5 102.034,208.5 102.13,208.5 102.226,208.5 102.323,208.5 102.419,208.5 102.515,208.5 102.612,208.5 102.708,208.5 102.805,208.5 102.901,208.5 102.997,208.5 103.094,208.5 103.19,208.5 103.287,208.5 103.383,208.5 103.479,208.5 103.576,208.5 103.672,208.5 103.769,208.5 103.865,208.5 103.961,208.5 104.058,208.5 104.154,208.5 104.25,208.5 104.347,208.5 104.443,208.5 104.54,208.5 104.636,208.5 104.732,208.5 104.829,208.5 104.925,208.5 105.022,208.5 105.118,208.5 105.214,208.5 105.311,208.5 105.407,208.5 105.504,208.5 105.6,208.5 105.696,208.5 105.793,208.5 105.889,208.5 105.985,208.5 106.082,208.5 106.178,208.5 106.275,208.5 106.371,208.5 106.467,208.5 106.564,208.5 106.66,208.5 106.757,208.5 106.853,208.5 106.949,208.5 107.046,208.5 107.142,208.5 107.239,208.5 107.335,208.5 107.431,208.5 107.528,208.5 107.624,208.5 107.72,208.5 107.817,208.5 107.913,208.5 108.01,208.5 108.106,208.5 108.202,208.5 108.299,208.5 108.395,208.5 108.492,208.5 108.588,208.5 108.684,208.5 108.781,208.5 108.877,208.5 108.974,208.5 109.07,208.5 109.166,208.5 109.263,208.5 109.359,208.5 109.455,208.5 109.552,208.5 109.648,208.5 109.745,208.5 109.841,208.5 109.937,208.5 110.034,208.5 110.13,208.5 110.227,208.5 110.323,208.5 110.419,208.5 110.516,208.5 110.612,208.5 110.709,208.5 110.805,208.5 110.901,208.5 110.998,208.5 111.094,208.5 111.191,208.5 111.287,208.5 111.383,208.5 111.48,208.5 111.576,208.5 111.672,208.5 111.769,208.5 111.865,208.5 111.962,208.5 112.058,208.5 112.154,208.5 112.251,208.5 112.347,208.5 112.444,208.5 112.54,208.5 112.636,208.5 112.733,208.5 112.829,208.5 112.926,208.5 113.022,208.5 113.118,208.5 113.215,208.5 113.311,208.5 113.407,208.5 113.504,208.5 113.6,208.5 113.697,208.5 113.793,208.5 113.889,208.5 113.986,208.5 114.082,208.5 114.179,208.5 114.275,208.5 114.371,208.5 114.468,208.5 114.564,208.5 114.661,208.5 114.757,208.5 114.853,208.5 114.95,208.5 115.046,208.5 115.142,208.5 115.239,208.5 115.335,208.5 115.432,208.5 115.528,208.5 115.624,208.5 115.721,208.5 115.817,208.5 115.914,208.5 116.01,208.5 116.106,208.5 116.203,208.5 116.299,208.5 116.396,208.5 116.492,208.5 116.588,208.5 116.685,208.5 116.781,208.5 116.877,208.5 116.974,208.5 117.07,208.5 117.167,208.5 117.263,208.5 117.359,208.5 117.456,208.5 117.552,208.5 117.649,208.5 117.745,208.5 117.841,208.5 117.938,208.5 118.034,208.5 118.131,208.5 118.227,208.5 118.323,208.5 118.42,208.5 118.516,208.5 118.612,208.5 118.709,208.5 118.805,208.5 118.902,208.5 118.998,208.5 119.094,208.5 119.191,208.5 119.287,208.5 119.384,208.5 119.48,208.5 119.576,208.5 119.673,208.5 119.769,208.5 119.866,208.5 119.962,208.5 120.058,208.5 120.155,208.5 120.251,208.5 120.348,208.5 120.444,208.5 120.54,208.5 120.637,208.5 120.733,208.5 120.829,208.5 120.926,208.5 121.022,208.5 121.119,208.5 121.215,208.5 121.311,208.5 121.408,208.5 121.504,208.5 121.601,208.5 121.697,208.5 121.793,208.5 121.89,208.5 121.986,208.5 122.083,208.5 122.179,208.5 122.275,208.5 122.372,208.5 122.468,208.5 122.564,208.5 122.661,208.5 122.757,208.5 122.854,208.5 122.95,208.5 123.046,208.5 123.143,208.5 123.239,208.5 123.336,208.5 123.432,208.5 123.528,208.5 123.625,208.5 123.721,208.5 123.818,208.5 123.914,208.5 124.01,208.5 124.107,208.5 124.203,208.5 124.299,208.5 124.396,208.5 124.492,208.5 124.589,208.5 124.685,208.5 124.781,208.5 124.878,208.5 124.974,208.5 125.071,208.5 125.167,208.5 125.263,208.5 125.36,208.5 125.456,208.5 125.553,208.5 125.649,208.5 125.745,208.5 125.842,208.5 125.938,208.5 126.034,208.5 126.131,208.5 126.227,208.5 126.324,208.5 126.42,208.5 126.516,208.5 126.613,208.5 126.709,208.5 126.806,208.5 126.902,208.5 126.998,208.5 127.095,208.5 127.191,208.5 127.288,208.5 127.384,208.5 127.48,208.5 127.577,208.5 127.673,208.5 127.769,208.5 127.866,208.5 127.962,208.5 128.059,208.5 128.155,208.5 128.251,208.5 128.348,208.5 128.444,208.5 128.541,208.5 128.637,208.5 128.733,208.5 128.83,208.5 128.926,208.5 129.023,208.5 129.119,208.5 129.215,208.5 129.312,208.5 129.408,208.5 129.505,208.5 129.601,208.5 129.697,208.5 129.794,208.5 129.89,208.5 129.986,208.5 130.083,208.5 130.179,208.5 130.276,208.5 130.372,208.5 130.468,208.5 130.565,208.5 130.661,208.5 130.758,208.5 130.854,208.5 130.95,208.5 131.047,208.5 131.143,208.5 131.24,208.5 131.336,208.5 131.432,208.5 131.529,208.5 131.625,208.5 131.721,208.5 131.818,208.5 131.914,208.5 132.011,208.5 132.107,208.5 132.203,208.5 132.3,208.5 132.396,208.5 132.493,208.5 132.589,208.5 132.685,208.5 132.782,208.5 132.878,208.5 132.975,208.5 133.071,208.5 133.167,208.5 133.264,208.5 133.36,208.5 133.456,208.5 133.553,208.5 133.649,208.5 133.746,208.5 133.842,208.5 133.938,208.5 134.035,208.5 134.131,208.5 134.228,208.5 134.324,208.5 134.42,208.5 134.517,208.5 134.613,208.5 134.71,208.5 134.806,208.5 134.902,208.5 134.999,208.5 135.095,208.5 135.191,208.5 135.288,208.5 135.384,208.5 135.481,208.5 135.577,208.5 135.673,208.5 135.77,208.5 135.866,208.5 135.963,208.5 136.059,208.5 136.155,208.5 136.252,208.5 136.348,208.5 136.445,208.5 136.541,208.5 136.637,208.5 136.734,208.499 136.83,208.499 136.926,208.499 137.023,208.499 137.119,208.499 137.216,208.499 137.312,208.499 137.408,208.499 137.505,208.499 137.601,208.499 137.698,208.499 137.794,208.499 137.89,208.499 137.987,208.499 138.083,208.499 138.18,208.499 138.276,208.499 138.372,208.499 138.469,208.499 138.565,208.499 138.661,208.499 138.758,208.499 138.854,208.499 138.951,208.499 139.047,208.499 139.143,208.499 139.24,208.499 139.336,208.499 139.433,208.499 139.529,208.499 139.625,208.499 139.722,208.499 139.818,208.499 139.915,208.499 140.011,208.499 140.107,208.499 140.204,208.499 140.3,208.499 140.397,208.499 140.493,208.499 140.589,208.499 140.686,208.499 140.782,208.499 140.878,208.499 140.975,208.499 141.071,208.499 141.168,208.499 141.264,208.499 141.36,208.499 141.457,208.499 141.553,208.499 141.65,208.499 141.746,208.499 141.842,208.499 141.939,208.499 142.035,208.499 142.132,208.499 142.228,208.499 142.324,208.499 142.421,208.499 142.517,208.499 142.613,208.499 142.71,208.499 142.806,208.5 142.903,208.5 142.999,208.5 143.095,208.5 143.192,208.5 143.288,208.5 143.385,208.5 143.481,208.5 143.577,208.5 143.674,208.5 143.77,208.5 143.867,208.501 143.963,208.501 144.059,208.501 144.156,208.501 144.252,208.501 144.348,208.501 144.445,208.501 144.541,208.501 144.638,208.502 144.734,208.502 144.83,208.502 144.927,208.502 145.023,208.502 145.12,208.502 145.216,208.503 145.312,208.503 145.409,208.503 145.505,208.503 145.602,208.503 145.698,208.503 145.794,208.504 145.891,208.504 145.987,208.504 146.083,208.504 146.18,208.504 146.276,208.504 146.373,208.505 146.469,208.505 146.565,208.505 146.662,208.505 146.758,208.505 146.855,208.506 146.951,208.506 147.047,208.506 147.144,208.506 147.24,208.506 147.337,208.506 147.433,208.507 147.529,208.507 147.626,208.507 147.722,208.507 147.818,208.507 147.915,208.507 148.011,208.508 148.108,208.508 148.204,208.508 148.3,208.508 148.397,208.508 148.493,208.508 148.59,208.508 148.686,208.509 148.782,208.509 148.879,208.509 148.975,208.509 149.072,208.509 149.168,208.509 149.264,208.509 149.361,208.509 149.457,208.509 149.554,208.509 149.65,208.509 149.746,208.509 149.843,208.509 149.939,208.509 150.035,208.509 150.132,208.509 150.228,208.509 150.325,208.509 150.421,208.508 150.517,208.508 150.614,208.508 150.71,208.508 150.807,208.508 150.903,208.507 150.999,208.507 151.096,208.507 151.192,208.507 151.289,208.506 151.385,208.506 151.481,208.506 151.578,208.505 151.674,208.505 151.77,208.505 151.867,208.504 151.963,208.504 152.06,208.503 152.156,208.503 152.252,208.502 152.349,208.502 152.445,208.501 152.542,208.5 152.638,208.5 152.734,208.499 152.831,208.498 152.927,208.498 153.024,208.497 153.12,208.496 153.216,208.495 153.313,208.495 153.409,208.494 153.505,208.493 153.602,208.492 153.698,208.491 153.795,208.49 153.891,208.489 153.987,208.488 154.084,208.487 154.18,208.487 154.277,208.486 154.373,208.484 154.469,208.483 154.566,208.482 154.662,208.481 154.759,208.48 154.855,208.479 154.951,208.478 155.048,208.477 155.144,208.476 155.24,208.475 155.337,208.474 155.433,208.473 155.53,208.471 155.626,208.47 155.722,208.469 155.819,208.468 155.915,208.467 156.012,208.466 156.108,208.465 156.204,208.464 156.301,208.462 156.397,208.461 156.494,208.46 156.59,208.459 156.686,208.458 156.783,208.457 156.879,208.456 156.975,208.455 157.072,208.454 157.168,208.453 157.265,208.453 157.361,208.452 157.457,208.451 157.554,208.45 157.65,208.45 157.747,208.449 157.843,208.448 157.939,208.448 158.036,208.447 158.132,208.447 158.229,208.447 158.325,208.446 158.421,208.446 158.518,208.446 158.614,208.446 158.711,208.446 158.807,208.446 158.903,208.446 159,208.446 159.096,208.446 159.192,208.447 159.289,208.447 159.385,208.448 159.482,208.448 159.578,208.449 159.674,208.45 159.771,208.451 159.867,208.452 159.964,208.453 160.06,208.455 160.156,208.456 160.253,208.457 160.349,208.459 160.446,208.461 160.542,208.463 160.638,208.465 160.735,208.467 160.831,208.469 160.927,208.471 161.024,208.474 161.12,208.476 161.217,208.479 161.313,208.482 161.409,208.485 161.506,208.488 161.602,208.491 161.699,208.494 161.795,208.498 161.891,208.501 161.988,208.505 162.084,208.509 162.181,208.513 162.277,208.517 162.373,208.521 162.47,208.525 162.566,208.529 162.662,208.534 162.759,208.538 162.855,208.543 162.952,208.548 163.048,208.553 163.144,208.558 163.241,208.563 163.337,208.568 163.434,208.573 163.53,208.579 163.626,208.584 163.723,208.59 163.819,208.595 163.916,208.601 164.012,208.606 164.108,208.612 164.205,208.618 164.301,208.624 164.397,208.629 164.494,208.635 164.59,208.641 164.687,208.647 164.783,208.653 164.879,208.658 164.976,208.664 165.072,208.67 165.169,208.676 165.265,208.681 165.361,208.687 165.458,208.692 165.554,208.698 165.651,208.703 165.747,208.708 165.843,208.713 165.94,208.718 166.036,208.723 166.132,208.728 166.229,208.732 166.325,208.737 166.422,208.741 166.518,208.745 166.614,208.749 166.711,208.752 166.807,208.756 166.904,208.759 167,208.762 167.096,208.764 167.193,208.767 167.289,208.769 167.386,208.77 167.482,208.772 167.578,208.773 167.675,208.774 167.771,208.774 167.867,208.774 167.964,208.774 168.06,208.773 168.157,208.772 168.253,208.77 168.349,208.769 168.446,208.766 168.542,208.763 168.639,208.76 168.735,208.757 168.831,208.752 168.928,208.748 169.024,208.743 169.121,208.737 169.217,208.731 169.313,208.724 169.41,208.717 169.506,208.71 169.603,208.702 169.699,208.693 169.795,208.684 169.892,208.674 169.988,208.664 170.084,208.653 170.181,208.641 170.277,208.629 170.374,208.617 170.47,208.604 170.566,208.59 170.663,208.576 170.759,208.562 170.856,208.546 170.952,208.531 171.048,208.514 171.145,208.498 171.241,208.48 171.338,208.463 171.434,208.444 171.53,208.425 171.627,208.406 171.723,208.386 171.819,208.366 171.916,208.346 172.012,208.325 172.109,208.303 172.205,208.281 172.301,208.259 172.398,208.237 172.494,208.214 172.591,208.19 172.687,208.167 172.783,208.143 172.88,208.119 172.976,208.095 173.073,208.07 173.169,208.046 173.265,208.021 173.362,207.996 173.458,207.971 173.554,207.946 173.651,207.921 173.747,207.896 173.844,207.871 173.94,207.846 174.036,207.822 174.133,207.797 174.229,207.773 174.326,207.749 174.422,207.725 174.518,207.701 174.615,207.678 174.711,207.655 174.808,207.633 174.904,207.611 175,207.59 175.097,207.569 175.193,207.549 175.289,207.53 175.386,207.511 175.482,207.493 175.579,207.476 175.675,207.459 175.771,207.444 175.868,207.429 175.964,207.416 176.061,207.403 176.157,207.392 176.253,207.381 176.35,207.372 176.446,207.364 176.543,207.357 176.639,207.352 176.735,207.348 176.832,207.345 176.928,207.344 177.024,207.344 177.121,207.346 177.217,207.349 177.314,207.354 177.41,207.36 177.506,207.369 177.603,207.378 177.699,207.39 177.796,207.403 177.892,207.419 177.988,207.435 178.085,207.454 178.181,207.475 178.278,207.498 178.374,207.522 178.47,207.549 178.567,207.577 178.663,207.607 178.76,207.64 178.856,207.674 178.952,207.711 179.049,207.749 179.145,207.79 179.241,207.832 179.338,207.877 179.434,207.923 179.531,207.972 179.627,208.023 179.723,208.075 179.82,208.13 179.916,208.186 180.013,208.245 180.109,208.305 180.205,208.368 180.302,208.432 180.398,208.498 180.495,208.566 180.591,208.635 180.687,208.706 180.784,208.779 180.88,208.854 180.976,208.93 181.073,209.007 181.169,209.086 181.266,209.166 181.362,209.248 181.458,209.331 181.555,209.415 181.651,209.5 181.748,209.586 181.844,209.672 181.94,209.76 182.037,209.848 182.133,209.937 182.23,210.027 182.326,210.117 182.422,210.207 182.519,210.297 182.615,210.388 182.711,210.478 182.808,210.569 182.904,210.659 183.001,210.748 183.097,210.837 183.193,210.926 183.29,211.013 183.386,211.1 183.483,211.186 183.579,211.27 183.675,211.353 183.772,211.435 183.868,211.515 183.965,211.593 184.061,211.67 184.157,211.744 184.254,211.816 184.35,211.886 184.446,211.953 184.543,212.018 184.639,212.08 184.736,212.139 184.832,212.195 184.928,212.247 185.025,212.296 185.121,212.342 185.218,212.384 185.314,212.422 185.41,212.457 185.507,212.487 185.603,212.513 185.7,212.534 185.796,212.551 185.892,212.563 185.989,212.571 186.085,212.574 186.181,212.571 186.278,212.564 186.374,212.551 186.471,212.533 186.567,212.509 186.663,212.48 186.76,212.445 186.856,212.404 186.953,212.358 187.049,212.305 187.145,212.247 187.242,212.182 187.338,212.112 187.435,212.035 187.531,211.952 187.627,211.863 187.724,211.767 187.82,211.665 187.917,211.556 188.013,211.442 188.109,211.321 188.206,211.193 188.302,211.059 188.398,210.919 188.495,210.772 188.591,210.62 188.688,210.46 188.784,210.295 188.88,210.124 188.977,209.947 189.073,209.763 189.17,209.574 189.266,209.379 189.362,209.179 189.459,208.973 189.555,208.762 189.652,208.545 189.748,208.324 189.844,208.097 189.941,207.866 190.037,207.63 190.133,207.39 190.23,207.146 190.326,206.897 190.423,206.646 190.519,206.39 190.615,206.132 190.712,205.87 190.808,205.606 190.905,205.339 191.001,205.07 191.097,204.8 191.194,204.527 191.29,204.254 191.387,203.979 191.483,203.704 191.579,203.429 191.676,203.153 191.772,202.878 191.868,202.604 191.965,202.331 192.061,202.059 192.158,201.79 192.254,201.522 192.35,201.257 192.447,200.995 192.543,200.737 192.64,200.482 192.736,200.231 192.832,199.985 192.929,199.744 193.025,199.509 193.122,199.279 193.218,199.055 193.314,198.838 193.411,198.628 193.507,198.426 193.603,198.231 193.7,198.045 193.796,197.867 193.893,197.699 193.989,197.54 194.085,197.391 194.182,197.252 194.278,197.123 194.375,197.006 194.471,196.9 194.567,196.806 194.664,196.724 194.76,196.655 194.857,196.598 194.953,196.555 195.049,196.525 195.146,196.509 195.242,196.507 195.338,196.519 195.435,196.547 195.531,196.589 195.628,196.646 195.724,196.719 195.82,196.807 195.917,196.911 196.013,197.032 196.11,197.168 196.206,197.321 196.302,197.491 196.399,197.677 196.495,197.88 196.592,198.1 196.688,198.337 196.784,198.59 196.881,198.861 196.977,199.149 197.073,199.453 197.17,199.775 197.266,200.113 197.363,200.468 197.459,200.84 197.555,201.229 197.652,201.634 197.748,202.055 197.845,202.492 197.941,202.944 198.037,203.413 198.134,203.896 198.23,204.395 198.327,204.908 198.423,205.435 198.519,205.977 198.616,206.532 198.712,207.1 198.809,207.68 198.905,208.273 199.001,208.878 199.098,209.493 199.194,210.12 199.29,210.756 199.387,211.402 199.483,212.057 199.58,212.72 199.676,213.39 199.772,214.068 199.869,214.751 199.965,215.44 200.062,216.134 200.158,216.832 200.254,217.533 200.351,218.237 200.447,218.942 200.544,219.647 200.64,220.353 200.736,221.058 200.833,221.761 200.929,222.462 201.025,223.158 201.122,223.851 201.218,224.538 201.315,225.218 201.411,225.891 201.507,226.556 201.604,227.212 201.7,227.858 201.797,228.492 201.893,229.115 201.989,229.724 202.086,230.32 202.182,230.9 202.279,231.464 202.375,232.012 202.471,232.542 202.568,233.053 202.664,233.544 202.76,234.014 202.857,234.463 202.953,234.889 203.05,235.292 203.146,235.67 203.242,236.023 203.339,236.35 203.435,236.65 203.532,236.923 203.628,237.167 203.724,237.381 203.821,237.565 203.917,237.719 204.014,237.841 204.11,237.931 204.206,237.988 204.303,238.012 204.399,238.001 204.495,237.956 204.592,237.876 204.688,237.76 204.785,237.608 204.881,237.42 204.977,237.194 205.074,236.932 205.17,236.632 205.267,236.294 205.363,235.918 205.459,235.504 205.556,235.052 205.652,234.562 205.749,234.033 205.845,233.466 205.941,232.86 206.038,232.217 206.134,231.535 206.23,230.816 206.327,230.059 206.423,229.264 206.52,228.433 206.616,227.565 206.712,226.662 206.809,225.722 206.905,224.748 207.002,223.74 207.098,222.698 207.194,221.622 207.291,220.515 207.387,219.376 207.484,218.207 207.58,217.008 207.676,215.781 207.773,214.526 207.869,213.245 207.966,211.938 208.062,210.607 208.158,209.253 208.255,207.878 208.351,206.481 208.447,205.066 208.544,203.633 208.64,202.184 208.737,200.721 208.833,199.243 208.929,197.755 209.026,196.256 209.122,194.749 209.219,193.235 209.315,191.715 209.411,190.193 209.508,188.669 209.604,187.145 209.701,185.623 209.797,184.104 209.893,182.592 209.99,181.087 210.086,179.591 210.182,178.107 210.279,176.636 210.375,175.18 210.472,173.741 210.568,172.322 210.664,170.923 210.761,169.547 210.857,168.197 210.954,166.873 211.05,165.578 211.146,164.313 211.243,163.082 211.339,161.884 211.436,160.724 211.532,159.601 211.628,158.519 211.725,157.479 211.821,156.482 211.917,155.532 212.014,154.628 212.11,153.774 212.207,152.97 212.303,152.218 212.399,151.521 212.496,150.878 212.592,150.293 212.689,149.767 212.785,149.3 212.881,148.894 212.978,148.55 213.074,148.271 213.171,148.056 213.267,147.907 213.363,147.825 213.46,147.811 213.556,147.865 213.652,147.99 213.749,148.184 213.845,148.45 213.942,148.788 214.038,149.198 214.134,149.68 214.231,150.235 214.327,150.864 214.424,151.566 214.52,152.342 214.616,153.191 214.713,154.114 214.809,155.111 214.906,156.18 215.002,157.322 215.098,158.536 215.195,159.823 215.291,161.18 215.387,162.608 215.484,164.105 215.58,165.671 215.677,167.305 215.773,169.006 215.869,170.772 215.966,172.602 216.062,174.496 216.159,176.45 216.255,178.464 216.351,180.537 216.448,182.666 216.544,184.85 216.641,187.086 216.737,189.373 216.833,191.709 216.93,194.091 217.026,196.517 217.123,198.986 217.219,201.494 217.315,204.039 217.412,206.619 217.508,209.231 217.604,211.872 217.701,214.539 217.797,217.23 217.894,219.942 217.99,222.672 218.086,225.418 218.183,228.175 218.279,230.94 218.376,233.712 218.472,236.486 218.568,239.26 218.665,242.03 218.761,244.793 218.858,247.545 218.954,250.284 219.05,253.006 219.147,255.708 219.243,258.386 219.339,261.037 219.436,263.657 219.532,266.244 219.629,268.794 219.725,271.303 219.821,273.769 219.918,276.188 220.014,278.556 220.111,280.87 220.207,283.128 220.303,285.326 220.4,287.46 220.496,289.529 220.593,291.528 220.689,293.454 220.785,295.305 220.882,297.078 220.978,298.77 221.074,300.378 221.171,301.9 221.267,303.332 221.364,304.673 221.46,305.92 221.556,307.071 221.653,308.122 221.749,309.073 221.846,309.921 221.942,310.664 222.038,311.3 222.135,311.828 222.231,312.246 222.328,312.552 222.424,312.745 222.52,312.823 222.617,312.787 222.713,312.633 222.809,312.363 222.906,311.974 223.002,311.466 223.099,310.839 223.195,310.092 223.291,309.226 223.388,308.239 223.484,307.133 223.581,305.906 223.677,304.561 223.773,303.097 223.87,301.514 223.966,299.814 224.063,297.997 224.159,296.065 224.255,294.019 224.352,291.86 224.448,289.59 224.544,287.21 224.641,284.722 224.737,282.128 224.834,279.43 224.93,276.631 225.026,273.733 225.123,270.738 225.219,267.648 225.316,264.468 225.412,261.199 225.508,257.844 225.605,254.407 225.701,250.892 225.798,247.301 225.894,243.637 225.99,239.905 226.087,236.109 226.183,232.252 226.279,228.338 226.376,224.371 226.472,220.355 226.569,216.294 226.665,212.194 226.761,208.058 226.858,203.89 226.954,199.695 227.051,195.478 227.147,191.244 227.243,186.997 227.34,182.741 227.436,178.483 227.533,174.226 227.629,169.975 227.725,165.736 227.822,161.512 227.918,157.311 228.015,153.135 228.111,148.99 228.207,144.881 228.304,140.814 228.4,136.792 228.496,132.821 228.593,128.906 228.689,125.051 228.786,121.262 228.882,117.543 228.978,113.898 229.075,110.333 229.171,106.853 229.268,103.461 229.364,100.162 229.46,96.96 229.557,93.8602 229.653,90.8662 229.75,87.9823 229.846,85.2123 229.942,82.5603 230.039,80.0298 230.135,77.6247 230.231,75.3483 230.328,73.2041 230.424,71.1953 230.521,69.3251 230.617,67.5964 230.713,66.0121 230.81,64.5747 230.906,63.2869 231.003,62.1509 231.099,61.169 231.195,60.3431 231.292,59.6751 231.388,59.1667 231.485,58.8193 231.581,58.6343 231.677,58.6128 231.774,58.7558 231.87,59.0639 231.966,59.5377 232.063,60.1777 232.159,60.9839 232.256,61.9564 232.352,63.095 232.448,64.3992 232.545,65.8684 232.641,67.5019 232.738,69.2986 232.834,71.2573 232.93,73.3767 233.027,75.6551 233.123,78.0908 233.22,80.6818 233.316,83.4259 233.412,86.3208 233.509,89.3638 233.605,92.5524 233.701,95.8835 233.798,99.3541 233.894,102.961 233.991,106.7 234.087,110.569 234.183,114.563 234.28,118.678 234.376,122.911 234.473,127.257 234.569,131.711 234.665,136.269 234.762,140.926 234.858,145.678 234.955,150.52 235.051,155.445 235.147,160.45 235.244,165.529 235.34,170.676 235.436,175.886 235.533,181.153 235.629,186.471 235.726,191.835 235.822,197.239 235.918,202.676 236.015,208.142 236.111,213.629 236.208,219.131 236.304,224.643 236.4,230.158 236.497,235.67 236.593,241.172 236.69,246.659 236.786,252.124 236.882,257.561 236.979,262.964 237.075,268.326 237.172,273.642 237.268,278.904 237.364,284.107 237.461,289.246 237.557,294.313 237.653,299.303 237.75,304.209 237.846,309.027 237.943,313.751 238.039,318.374 238.135,322.892 238.232,327.298 238.328,331.589 238.425,335.757 238.521,339.799 238.617,343.709 238.714,347.483 238.81,351.116 238.907,354.603 239.003,357.941 239.099,361.124 239.196,364.15 239.292,367.013 239.388,369.712 239.485,372.241 239.581,374.598 239.678,376.78 239.774,378.784 239.87,380.607 239.967,382.247 240.063,383.701 240.16,384.968 240.256,386.045 240.352,386.931 240.449,387.625 240.545,388.125 240.642,388.431 240.738,388.541 240.834,388.455 240.931,388.174 241.027,387.696 241.123,387.022 241.22,386.153 241.316,385.089 241.413,383.831 241.509,382.38 241.605,380.737 241.702,378.905 241.798,376.884 241.895,374.676 241.991,372.285 242.087,369.712 242.184,366.96 242.28,364.032 242.377,360.931 242.473,357.66 242.569,354.223 242.666,350.623 242.762,346.864 242.858,342.951 242.955,338.887 243.051,334.677 243.148,330.326 243.244,325.838 243.34,321.218 243.437,316.472 243.533,311.604 243.63,306.62 243.726,301.526 243.822,296.327 243.919,291.029 244.015,285.637 244.112,280.159 244.208,274.599 244.304,268.965 244.401,263.262 244.497,257.497 244.593,251.677 244.69,245.807 244.786,239.895 244.883,233.947 244.979,227.97 245.075,221.97 245.172,215.955 245.268,209.931 245.365,203.904 245.461,197.883 245.557,191.873 245.654,185.881 245.75,179.914 245.847,173.978 245.943,168.081 246.039,162.229 246.136,156.429 246.232,150.686 246.329,145.009 246.425,139.402 246.521,133.872 246.618,128.426 246.714,123.069 246.81,117.808 246.907,112.648 247.003,107.595 247.1,102.655 247.196,97.833 247.292,93.1347 247.389,88.5652 247.485,84.1295 247.582,79.8326 247.678,75.6791 247.774,71.6736 247.871,67.8205 247.967,64.124 248.064,60.588 248.16,57.2165 248.256,54.013 248.353,50.9809 248.449,48.1235 248.545,45.4438 248.642,42.9446 248.738,40.6285 248.835,38.4978 248.931,36.5547 249.027,34.8012 249.124,33.2389 249.22,31.8693 249.317,30.6938 249.413,29.7132 249.509,28.9285 249.606,28.3401 249.702,27.9485 249.799,27.7538 249.895,27.7557 249.991,27.9541 250.088,28.3483 250.184,28.9374 250.28,29.7206 250.377,30.6965 250.473,31.8636 250.57,33.2203 250.666,34.7647 250.762,36.4946 250.859,38.4077 250.955,40.5015 251.052,42.7731 251.148,45.2197 251.244,47.8382 251.341,50.625 251.437,53.5768 251.534,56.6898 251.63,59.9602 251.726,63.3838 251.823,66.9564 251.919,70.6736 252.015,74.5309 252.112,78.5236 252.208,82.6467 252.305,86.8954 252.401,91.2644 252.497,95.7486 252.594,100.343 252.69,105.041 252.787,109.838 252.883,114.727 252.979,119.705 253.076,124.763 253.172,129.897 253.269,135.1 253.365,140.366 253.461,145.69 253.558,151.065 253.654,156.484 253.75,161.942 253.847,167.432 253.943,172.948 254.04,178.484 254.136,184.033 254.232,189.589 254.329,195.146 254.425,200.697 254.522,206.237 254.618,211.759 254.714,217.256 254.811,222.723 254.907,228.154 255.004,233.543 255.1,238.884 255.196,244.17 255.293,249.397 255.389,254.558 255.485,259.649 255.582,264.662 255.678,269.594 255.775,274.439 255.871,279.192 255.967,283.848 256.064,288.402 256.16,292.849 256.257,297.185 256.353,301.405 256.449,305.506 256.546,309.482 256.642,313.33 256.739,317.047 256.835,320.629 256.931,324.071 257.028,327.372 257.124,330.527 257.221,333.535 257.317,336.392 257.413,339.095 257.51,341.644 257.606,344.034 257.702,346.265 257.799,348.335 257.895,350.242 257.992,351.984 258.088,353.562 258.184,354.973 258.281,356.216 258.377,357.293 258.474,358.201 258.57,358.941 258.666,359.513 258.763,359.918 258.859,360.155 258.956,360.225 259.052,360.129 259.148,359.868 259.245,359.444 259.341,358.857 259.437,358.109 259.534,357.202 259.63,356.138 259.727,354.919 259.823,353.547 259.919,352.025 260.016,350.355 260.112,348.54 260.209,346.582 260.305,344.486 260.401,342.254 260.498,339.889 260.594,337.395 260.691,334.775 260.787,332.034 260.883,329.175 260.98,326.202 261.076,323.119 261.172,319.93 261.269,316.64 261.365,313.253 261.462,309.773 261.558,306.205 261.654,302.553 261.751,298.823 261.847,295.018 261.944,291.144 262.04,287.206 262.136,283.208 262.233,279.156 262.329,275.054 262.426,270.907 262.522,266.721 262.618,262.5 262.715,258.249 262.811,253.973 262.907,249.678 263.004,245.369 263.1,241.049 263.197,236.725 263.293,232.402 263.389,228.083 263.486,223.775 263.582,219.481 263.679,215.207 263.775,210.958 263.871,206.737 263.968,202.55 264.064,198.401 264.161,194.294 264.257,190.235 264.353,186.226 264.45,182.273 264.546,178.379 264.642,174.548 264.739,170.785 264.835,167.092 264.932,163.474 265.028,159.934 265.124,156.476 265.221,153.103 265.317,149.817 265.414,146.623 265.51,143.522 265.606,140.518 265.703,137.614 265.799,134.811 265.896,132.113 265.992,129.521 266.088,127.037 266.185,124.664 266.281,122.403 266.378,120.256 266.474,118.225 266.57,116.31 266.667,114.513 266.763,112.835 266.859,111.277 266.956,109.839 267.052,108.523 267.149,107.328 267.245,106.255 267.341,105.305 267.438,104.477 267.534,103.77 267.631,103.186 267.727,102.722 267.823,102.38 267.92,102.158 268.016,102.055 268.113,102.07 268.209,102.203 268.305,102.451 268.402,102.815 268.498,103.291 268.594,103.879 268.691,104.577 268.787,105.384 268.884,106.296 268.98,107.313 269.076,108.432 269.173,109.65 269.269,110.966 269.366,112.377 269.462,113.881 269.558,115.474 269.655,117.155 269.751,118.92 269.848,120.766 269.944,122.692 270.04,124.693 270.137,126.767 270.233,128.911 270.329,131.121 270.426,133.394 270.522,135.727 270.619,138.118 270.715,140.561 270.811,143.055 270.908,145.596 271.004,148.18 271.101,150.804 271.197,153.464 271.293,156.158 271.39,158.882 271.486,161.632 271.583,164.404 271.679,167.196 271.775,170.005 271.872,172.826 271.968,175.656 272.064,178.492 272.161,181.331 272.257,184.169 272.354,187.003 272.45,189.83 272.546,192.647 272.643,195.451 272.739,198.238 272.836,201.005 272.932,203.75 273.028,206.47 273.125,209.161 273.221,211.821 273.318,214.448 273.414,217.038 273.51,219.59 273.607,222.1 273.703,224.566 273.799,226.986 273.896,229.357 273.992,231.678 274.089,233.946 274.185,236.159 274.281,238.316 274.378,240.414 274.474,242.452 274.571,244.428 274.667,246.34 274.763,248.188 274.86,249.969 274.956,251.683 275.053,253.328 275.149,254.903 275.245,256.407 275.342,257.84 275.438,259.2 275.535,260.487 275.631,261.7 275.727,262.839 275.824,263.903 275.92,264.891 276.016,265.805 276.113,266.643 276.209,267.406 276.306,268.093 276.402,268.705 276.498,269.241 276.595,269.703 276.691,270.091 276.788,270.404 276.884,270.645 276.98,270.812 277.077,270.908 277.173,270.932 277.27,270.886 277.366,270.771 277.462,270.587 277.559,270.336 277.655,270.019 277.751,269.637 277.848,269.191 277.944,268.683 278.041,268.114 278.137,267.486 278.233,266.799 278.33,266.057 278.426,265.259 278.523,264.408 278.619,263.506 278.715,262.554 278.812,261.555 278.908,260.509 279.005,259.418 279.101,258.285 279.197,257.112 279.294,255.9 279.39,254.651 279.486,253.367 279.583,252.051 279.679,250.704 279.776,249.327 279.872,247.924 279.968,246.496 280.065,245.046 280.161,243.574 280.258,242.083 280.354,240.576 280.45,239.053 280.547,237.518 280.643,235.972 280.74,234.417 280.836,232.855 280.932,231.288 281.029,229.717 281.125,228.146 281.221,226.574 281.318,225.006 281.414,223.441 281.511,221.882 281.607,220.331 281.703,218.789 281.8,217.258 281.896,215.74 281.993,214.236 282.089,212.748 282.185,211.278 282.282,209.826 282.378,208.394 282.475,206.984 282.571,205.596 282.667,204.233 282.764,202.896 282.86,201.585 282.956,200.301 283.053,199.047 283.149,197.822 283.246,196.629 283.342,195.467 283.438,194.338 283.535,193.242 283.631,192.181 283.728,191.154 283.824,190.164 283.92,189.209 284.017,188.292 284.113,187.412 284.21,186.57 284.306,185.766 284.402,185 284.499,184.274 284.595,183.587 284.691,182.939 284.788,182.33 284.884,181.761 284.981,181.232 285.077,180.743 285.173,180.293 285.27,179.882 285.366,179.511 285.463,179.179 285.559,178.886 285.655,178.632 285.752,178.416 285.848,178.238 285.945,178.098 286.041,177.994 286.137,177.928 286.234,177.897 286.33,177.902 286.427,177.942 286.523,178.017 286.619,178.125 286.716,178.267 286.812,178.44 286.908,178.646 287.005,178.882 287.101,179.148 287.198,179.443 287.294,179.767 287.39,180.119 287.487,180.497 287.583,180.9 287.68,181.329 287.776,181.782 287.872,182.257 287.969,182.755 288.065,183.274 288.162,183.813 288.258,184.371 288.354,184.947 288.451,185.54 288.547,186.15 288.643,186.774 288.74,187.413 288.836,188.065 288.933,188.729 289.029,189.404 289.125,190.09 289.222,190.784 289.318,191.487 289.415,192.197 289.511,192.913 289.607,193.634 289.704,194.359 289.8,195.088 289.897,195.82 289.993,196.553 290.089,197.286 290.186,198.02 290.282,198.752 290.378,199.482 290.475,200.209 290.571,200.933 290.668,201.652 290.764,202.366 290.86,203.074 290.957,203.775 291.053,204.469 291.15,205.155 291.246,205.832 291.342,206.499 291.439,207.157 291.535,207.803 291.632,208.439 291.728,209.062 291.824,209.674 291.921,210.272 292.017,210.857 292.113,211.428 292.21,211.985 292.306,212.528 292.403,213.055 292.499,213.568 292.595,214.064 292.692,214.544 292.788,215.009 292.885,215.456 292.981,215.887 293.077,216.301 293.174,216.698 293.27,217.078 293.367,217.44 293.463,217.785 293.559,218.112 293.656,218.421 293.752,218.713 293.848,218.987 293.945,219.244 294.041,219.483 294.138,219.704 294.234,219.908 294.33,220.094 294.427,220.263 294.523,220.415 294.62,220.55 294.716,220.667 294.812,220.769 294.909,220.854 295.005,220.922 295.102,220.975 295.198,221.012 295.294,221.033 295.391,221.039 295.487,221.03 295.584,221.007 295.68,220.969 295.776,220.918 295.873,220.852 295.969,220.774 296.065,220.683 296.162,220.579 296.258,220.463 296.355,220.335 296.451,220.196 296.547,220.046 296.644,219.885 296.74,219.714 296.837,219.534 296.933,219.344 297.029,219.145 297.126,218.938 297.222,218.723 297.319,218.5 297.415,218.27 297.511,218.033 297.608,217.79 297.704,217.541 297.8,217.286 297.897,217.026 297.993,216.762 298.09,216.494 298.186,216.222 298.282,215.946 298.379,215.667 298.475,215.386 298.572,215.103 298.668,214.818 298.764,214.531 298.861,214.244 298.957,213.956 299.054,213.667 299.15,213.379 299.246,213.091 299.343,212.804 299.439,212.518 299.535,212.234 299.632,211.951 299.728,211.67 299.825,211.392 299.921,211.116 300.017,210.843 300.114,210.574 300.21,210.308 300.307,210.045 300.403,209.787 300.499,209.533 300.596,209.283 300.692,209.038 300.789,208.798 300.885,208.562 300.981,208.332 301.078,208.108 301.174,207.889 301.27,207.675 301.367,207.467 301.463,207.266 301.56,207.07 301.656,206.88 301.752,206.697 301.849,206.52 301.945,206.35 302.042,206.186 302.138,206.028 302.234,205.877 302.331,205.733 302.427,205.596 302.524,205.465 302.62,205.341 302.716,205.223 302.813,205.112 302.909,205.008 303.005,204.911 303.102,204.82 303.198,204.735 303.295,204.658 303.391,204.586 303.487,204.521 303.584,204.463 303.68,204.411 303.777,204.364 303.873,204.324 303.969,204.291 304.066,204.262 304.162,204.24 304.259,204.224 304.355,204.213 304.451,204.207 304.548,204.207 304.644,204.212 304.741,204.223 304.837,204.238 304.933,204.258 305.03,204.283 305.126,204.312 305.222,204.346 305.319,204.384 305.415,204.426 305.512,204.472 305.608,204.522 305.704,204.575 305.801,204.632 305.897,204.692 305.994,204.756 306.09,204.823 306.186,204.892 306.283,204.964 306.379,205.039 306.476,205.116 306.572,205.195 306.668,205.277 306.765,205.36 306.861,205.445 306.957,205.532 307.054,205.621 307.15,205.71 307.247,205.801 307.343,205.893 307.439,205.986 307.536,206.079 307.632,206.174 307.729,206.268 307.825,206.364 307.921,206.459 308.018,206.554 308.114,206.65 308.211,206.745 308.307,206.84 308.403,206.935 308.5,207.029 308.596,207.123 308.692,207.216 308.789,207.308 308.885,207.399 308.982,207.49 309.078,207.579 309.174,207.667 309.271,207.754 309.367,207.84 309.464,207.924 309.56,208.006 309.656,208.088 309.753,208.167 309.849,208.245 309.946,208.321 310.042,208.396 310.138,208.469 310.235,208.539 310.331,208.608 310.427,208.675 310.524,208.74 310.62,208.803 310.717,208.864 310.813,208.923 310.909,208.98 311.006,209.034 311.102,209.087 311.199,209.138 311.295,209.186 311.391,209.232 311.488,209.276 311.584,209.318 311.681,209.358 311.777,209.395 311.873,209.431 311.97,209.464 312.066,209.495 312.162,209.525 312.259,209.552 312.355,209.577 312.452,209.6 312.548,209.621 312.644,209.64 312.741,209.657 312.837,209.672 312.934,209.685 313.03,209.697 313.126,209.706 313.223,209.714 313.319,209.72 313.416,209.725 313.512,209.727 313.608,209.728 313.705,209.728 313.801,209.726 313.897,209.722 313.994,209.717 314.09,209.711 314.187,209.703 314.283,209.694 314.379,209.684 314.476,209.672 314.572,209.66 314.669,209.646 314.765,209.631 314.861,209.615 314.958,209.598 315.054,209.58 315.151,209.562 315.247,209.542 315.343,209.522 315.44,209.501 315.536,209.479 315.633,209.457 315.729,209.434 315.825,209.411 315.922,209.387 316.018,209.362 316.114,209.337 316.211,209.312 316.307,209.287 316.404,209.261 316.5,209.235 316.596,209.209 316.693,209.182 316.789,209.156 316.886,209.129 316.982,209.103 317.078,209.076 317.175,209.05 317.271,209.023 317.368,208.997 317.464,208.971 317.56,208.944 317.657,208.919 317.753,208.893 317.849,208.867 317.946,208.842 318.042,208.817 318.139,208.793 318.235,208.768 318.331,208.745 318.428,208.721 318.524,208.698 318.621,208.675 318.717,208.653 318.813,208.631 318.91,208.61 319.006,208.589 319.103,208.569 319.199,208.549 319.295,208.53 319.392,208.511 319.488,208.493 319.584,208.475 319.681,208.458 319.777,208.442 319.874,208.426 319.97,208.411 320.066,208.396 320.163,208.382 320.259,208.368 320.356,208.355 320.452,208.342 320.548,208.331 320.645,208.319 320.741,208.309 320.838,208.298 320.934,208.289 321.03,208.28 321.127,208.271 321.223,208.264 321.319,208.256 321.416,208.249 321.512,208.243 321.609,208.237 321.705,208.232 321.801,208.227 321.898,208.223 321.994,208.22 322.091,208.216 322.187,208.214 322.283,208.211 322.38,208.209 322.476,208.208 322.573,208.207 322.669,208.207 322.765,208.206 322.862,208.207 322.958,208.207 323.054,208.208 323.151,208.21 323.247,208.211 323.344,208.213 323.44,208.216 323.536,208.218 323.633,208.221 323.729,208.224 323.826,208.228 323.922,208.231 324.018,208.235 324.115,208.239 324.211,208.244 324.308,208.248 324.404,208.253 324.5,208.258 324.597,208.263 324.693,208.269 324.79,208.274 324.886,208.279 324.982,208.285 325.079,208.291 325.175,208.297 325.271,208.303 325.368,208.309 325.464,208.315 325.561,208.321 325.657,208.327 325.753,208.333 325.85,208.339 325.946,208.346 326.043,208.352 326.139,208.358 326.235,208.364 326.332,208.37 326.428,208.377 326.525,208.383 326.621,208.389 326.717,208.395 326.814,208.401 326.91,208.407 327.006,208.413 327.103,208.418 327.199,208.424 327.296,208.43 327.392,208.435 327.488,208.441 327.585,208.446 327.681,208.451 327.778,208.456 327.874,208.461 327.97,208.466 328.067,208.471 328.163,208.476 328.26,208.48 328.356,208.484 328.452,208.489 328.549,208.493 328.645,208.497 328.741,208.501 328.838,208.505 328.934,208.508 329.031,208.512 329.127,208.515 329.223,208.518 329.32,208.521 329.416,208.524 329.513,208.527 329.609,208.53 329.705,208.532 329.802,208.535 329.898,208.537 329.995,208.539 330.091,208.541 330.187,208.543 330.284,208.545 330.38,208.547 330.476,208.548 330.573,208.55 330.669,208.551 330.766,208.552 330.862,208.553 330.958,208.554 331.055,208.555 331.151,208.556 331.248,208.557 331.344,208.557 331.44,208.558 331.537,208.558 331.633,208.558 331.73,208.559 331.826,208.559 331.922,208.559 332.019,208.559 332.115,208.558 332.211,208.558 332.308,208.558 332.404,208.558 332.501,208.557 332.597,208.557 332.693,208.556 332.79,208.555 332.886,208.555 332.983,208.554 333.079,208.553 333.175,208.553 333.272,208.552 333.368,208.551 333.465,208.55 333.561,208.549 333.657,208.548 333.754,208.547 333.85,208.546 333.946,208.545 334.043,208.544 334.139,208.542 334.236,208.541 334.332,208.54 334.428,208.539 334.525,208.538 334.621,208.536 334.718,208.535 334.814,208.534 334.91,208.533 335.007,208.532 335.103,208.53 335.2,208.529 335.296,208.528 335.392,208.527 335.489,208.525 335.585,208.524 335.682,208.523 335.778,208.522 335.874,208.521 335.971,208.52 336.067,208.518 336.163,208.517 336.26,208.516 336.356,208.515 336.453,208.514 336.549,208.513 336.645,208.512 336.742,208.511 336.838,208.51 336.935,208.509 337.031,208.508 337.127,208.507 337.224,208.506 337.32,208.505 337.417,208.505 337.513,208.504 337.609,208.503 337.706,208.502 337.802,208.501 337.898,208.501 337.995,208.5 338.091,208.499 338.188,208.499 338.284,208.498 338.38,208.497 338.477,208.497 338.573,208.496 338.67,208.496 338.766,208.495 338.862,208.495 338.959,208.494 339.055,208.494 339.152,208.494 339.248,208.493 339.344,208.493 339.441,208.493 339.537,208.492 339.633,208.492 339.73,208.492 339.826,208.492 339.923,208.491 340.019,208.491 340.115,208.491 340.212,208.491 340.308,208.491 340.405,208.491 340.501,208.49 340.597,208.49 340.694,208.49 340.79,208.49 340.887,208.49 340.983,208.49 341.079,208.49 341.176,208.49 341.272,208.49 341.368,208.49 341.465,208.49 341.561,208.49 341.658,208.49 341.754,208.491 341.85,208.491 341.947,208.491 342.043,208.491 342.14,208.491 342.236,208.491 342.332,208.491 342.429,208.491 342.525,208.492 342.622,208.492 342.718,208.492 342.814,208.492 342.911,208.492 343.007,208.492 343.103,208.493 343.2,208.493 343.296,208.493 343.393,208.493 343.489,208.493 343.585,208.494 343.682,208.494 343.778,208.494 343.875,208.494 343.971,208.494 344.067,208.495 344.164,208.495 344.26,208.495 344.357,208.495 344.453,208.495 344.549,208.496 344.646,208.496 344.742,208.496 344.839,208.496 344.935,208.496 345.031,208.497 345.128,208.497 345.224,208.497 345.32,208.497 345.417,208.497 345.513,208.497 345.61,208.498 345.706,208.498 345.802,208.498 345.899,208.498 345.995,208.498 346.092,208.498 346.188,208.499 346.284,208.499 346.381,208.499 346.477,208.499 346.574,208.499 346.67,208.499 346.766,208.499 346.863,208.5 346.959,208.5 347.055,208.5 347.152,208.5 347.248,208.5 347.345,208.5 347.441,208.5 347.537,208.5 347.634,208.5 347.73,208.5 347.827,208.501 347.923,208.501 348.019,208.501 348.116,208.501 348.212,208.501 348.309,208.501 348.405,208.501 348.501,208.501 348.598,208.501 348.694,208.501 348.79,208.501 348.887,208.501 348.983,208.501 349.08,208.501 349.176,208.501 349.272,208.501 349.369,208.501 349.465,208.501 349.562,208.501 349.658,208.501 349.754,208.501 349.851,208.501 349.947,208.501 350.044,208.501 350.14,208.501 350.236,208.501 350.333,208.501 350.429,208.501 350.525,208.501 350.622,208.501 350.718,208.501 350.815,208.501 350.911,208.501 351.007,208.501 351.104,208.501 351.2,208.501 351.297,208.501 351.393,208.501 351.489,208.501 351.586,208.501 351.682,208.501 351.779,208.501 351.875,208.501 351.971,208.501 352.068,208.501 352.164,208.501 352.26,208.501 352.357,208.501 352.453,208.501 352.55,208.501 352.646,208.501 352.742,208.501 352.839,208.501 352.935,208.501 353.032,208.501 353.128,208.501 353.224,208.501 353.321,208.501 353.417,208.501 353.514,208.501 353.61,208.501 353.706,208.501 353.803,208.501 353.899,208.501 353.996,208.501 354.092,208.5 354.188,208.5 354.285,208.5 354.381,208.5 354.477,208.5 354.574,208.5 354.67,208.5 354.767,208.5 354.863,208.5 354.959,208.5 355.056,208.5 355.152,208.5 355.249,208.5 355.345,208.5 355.441,208.5 355.538,208.5 355.634,208.5 355.731,208.5 355.827,208.5 355.923,208.5 356.02,208.5 356.116,208.5 356.212,208.5 356.309,208.5 356.405,208.5 356.502,208.5 356.598,208.5 356.694,208.5 356.791,208.5 356.887,208.5 356.984,208.5 357.08,208.5 357.176,208.5 357.273,208.5 357.369,208.5 357.466,208.5 357.562,208.5 357.658,208.5 357.755,208.5 357.851,208.5 357.947,208.5 358.044,208.5 358.14,208.5 358.237,208.5 358.333,208.5 358.429,208.5 358.526,208.5 358.622,208.5 358.719,208.5 358.815,208.5 358.911,208.5 359.008,208.5 359.104,208.5 359.201,208.5 359.297,208.5 359.393,208.5 359.49,208.5 359.586,208.5 359.682,208.5 359.779,208.5 359.875,208.5 359.972,208.5 360.068,208.5 360.164,208.5 360.261,208.5 360.357,208.5 360.454,208.5 360.55,208.5 360.646,208.5 360.743,208.5 360.839,208.5 360.936,208.5 361.032,208.5 361.128,208.5 361.225,208.5 361.321,208.5 361.417,208.5 361.514,208.5 361.61,208.5 361.707,208.5 361.803,208.5 361.899,208.5 361.996,208.5 362.092,208.5 362.189,208.5 362.285,208.5 362.381,208.5 362.478,208.5 362.574,208.5 362.671,208.5 362.767,208.5 362.863,208.5 362.96,208.5 363.056,208.5 363.152,208.5 363.249,208.5 363.345,208.5 363.442,208.5 363.538,208.5 363.634,208.5 363.731,208.5 363.827,208.5 363.924,208.5 364.02,208.5 364.116,208.5 364.213,208.5 364.309,208.5 364.406,208.5 364.502,208.5 364.598,208.5 364.695,208.5 364.791,208.5 364.888,208.5 364.984,208.5 365.08,208.5 365.177,208.5 365.273,208.5 365.369,208.5 365.466,208.5 365.562,208.5 365.659,208.5 365.755,208.5 365.851,208.5 365.948,208.5 366.044,208.5 366.141,208.5 366.237,208.5 366.333,208.5 366.43,208.5 366.526,208.5 366.623,208.5 366.719,208.5 366.815,208.5 366.912,208.5 367.008,208.5 367.104,208.5 367.201,208.5 367.297,208.5 367.394,208.5 367.49,208.5 367.586,208.5 367.683,208.5 367.779,208.5 367.876,208.5 367.972,208.5 368.068,208.5 368.165,208.5 368.261,208.5 368.358,208.5 368.454,208.5 368.55,208.5 368.647,208.5 368.743,208.5 368.839,208.5 368.936,208.5 369.032,208.5 369.129,208.5 369.225,208.5 369.321,208.5 369.418,208.5 369.514,208.5 369.611,208.5 369.707,208.5 369.803,208.5 369.9,208.5 369.996,208.5 370.093,208.5 370.189,208.5 370.285,208.5 370.382,208.5 370.478,208.5 370.574,208.5 370.671,208.5 370.767,208.5 370.864,208.5 370.96,208.5 371.056,208.5 371.153,208.5 371.249,208.5 371.346,208.5 371.442,208.5 371.538,208.5 371.635,208.5 371.731,208.5 371.828,208.5 371.924,208.5 372.02,208.5 372.117,208.5 372.213,208.5 372.309,208.5 372.406,208.5 372.502,208.5 372.599,208.5 372.695,208.5 372.791,208.5 372.888,208.5 372.984,208.5 373.081,208.5 373.177,208.5 373.273,208.5 373.37,208.5 373.466,208.5 373.563,208.5 373.659,208.5 373.755,208.5 373.852,208.5 373.948,208.5 374.045,208.5 374.141,208.5 374.237,208.5 374.334,208.5 374.43,208.5 374.526,208.5 374.623,208.5 374.719,208.5 374.816,208.5 374.912,208.5 375.008,208.5 375.105,208.5 375.201,208.5 375.298,208.5 375.394,208.5 375.49,208.5 375.587,208.5 375.683,208.5 375.78,208.5 375.876,208.5 375.972,208.5 376.069,208.5 376.165,208.5 376.261,208.5 376.358,208.5 376.454,208.5 376.551,208.5 376.647,208.5 376.743,208.5 376.84,208.5 376.936,208.5 377.033,208.5 377.129,208.5 377.225,208.5 377.322,208.5 377.418,208.5 377.515,208.5 377.611,208.5 377.707,208.5 377.804,208.5 377.9,208.5 377.996,208.5 378.093,208.5 378.189,208.5 378.286,208.5 378.382,208.5 378.478,208.5 378.575,208.5 378.671,208.5 378.768,208.5 378.864,208.5 378.96,208.5 379.057,208.5 379.153,208.5 379.25,208.5 379.346,208.5 379.442,208.5 379.539,208.5 379.635,208.5 379.731,208.5 379.828,208.5 379.924,208.5 380.021,208.5 380.117,208.5 380.213,208.5 380.31,208.5 380.406,208.5 380.503,208.5 380.599,208.5 380.695,208.5 380.792,208.5 380.888,208.5 380.985,208.5 381.081,208.5 381.177,208.5 381.274,208.5 381.37,208.5 381.466,208.5 381.563,208.5 381.659,208.5 381.756,208.5 381.852,208.5 381.948,208.5 382.045,208.5 382.141,208.5 382.238,208.5 382.334,208.5 382.43,208.5 382.527,208.5 382.623,208.5 382.72,208.5 382.816,208.5 382.912,208.5 383.009,208.5 383.105,208.5 383.202,208.5 383.298,208.5 383.394,208.5 383.491,208.5 383.587,208.5 383.683,208.5 383.78,208.5 383.876,208.5 383.973,208.5 384.069,208.5 384.165,208.5 384.262,208.5 384.358,208.5 384.455,208.5 384.551,208.5 384.647,208.5 384.744,208.5 384.84,208.5 384.937,208.5 385.033,208.5 385.129,208.5 385.226,208.5 385.322,208.5 385.418,208.5 385.515,208.5 385.611,208.5 385.708,208.5 385.804,208.5 385.9,208.5 385.997,208.5 386.093,208.5 386.19,208.5 386.286,208.5 386.382,208.5 386.479,208.5 386.575,208.5 386.672,208.5 386.768,208.5 386.864,208.5 386.961,208.5 387.057,208.5 387.153,208.5 387.25,208.5 387.346,208.5 387.443,208.5 387.539,208.5 387.635,208.5 387.732,208.5 387.828,208.5 387.925,208.5 388.021,208.5 388.117,208.5 388.214,208.5 388.31,208.5 388.407,208.5 388.503,208.5 388.599,208.5 388.696,208.5 388.792,208.5 388.888,208.5 388.985,208.5 389.081,208.5 389.178,208.5 389.274,208.5 389.37,208.5 389.467,208.5 389.563,208.5 389.66,208.5 389.756,208.5 389.852,208.5 389.949,208.5 390.045,208.5 390.142,208.5 390.238,208.5 390.334,208.5 390.431,208.5 390.527,208.5 390.623,208.5 390.72,208.5 390.816,208.5 390.913,208.5 391.009,208.5 391.105,208.5 391.202,208.5 391.298,208.5 391.395,208.5 391.491,208.5 391.587,208.5 391.684,208.5 391.78,208.5 391.877,208.5 391.973,208.5 392.069,208.5 392.166,208.5 392.262,208.5 392.358,208.5 392.455,208.5 392.551,208.5 392.648,208.5 392.744,208.5 392.84,208.5 392.937,208.5 393.033,208.5 393.13,208.5 393.226,208.5 393.322,208.5 393.419,208.5 393.515,208.5 393.612,208.5 393.708,208.5 393.804,208.5 393.901,208.5 393.997,208.5 394.094,208.5 394.19,208.5 394.286,208.5 394.383,208.5 394.479,208.5 394.575,208.5 394.672,208.5 394.768,208.5 394.865,208.5 394.961,208.5 395.057,208.5 395.154,208.5 395.25,208.5 395.347,208.5 395.443,208.5 395.539,208.5 395.636,208.5 395.732,208.5 395.829,208.5 395.925,208.5 396.021,208.5 396.118,208.5 396.214,208.5 396.31,208.5 396.407,208.5 396.503,208.5 396.6,208.5 396.696,208.5 396.792,208.5 396.889,208.5 396.985,208.5 397.082,208.5 397.178,208.5 397.274,208.5 397.371,208.5 397.467,208.5 397.564,208.5 397.66,208.5 397.756,208.5 397.853,208.5 397.949,208.5 398.045,208.5 398.142,208.5 398.238,208.5 398.335,208.5 398.431,208.5 398.527,208.5 398.624,208.5 398.72,208.5 398.817,208.5 398.913,208.5 399.009,208.5 399.106,208.5 399.202,208.5 399.299,208.5 399.395,208.5 399.491,208.5 399.588,208.5 399.684,208.5 399.78,208.5 399.877,208.5 399.973,208.5 400.07,208.5 400.166,208.5 400.262,208.5 400.359,208.5 400.455,208.5 400.552,208.5 400.648,208.5 400.744,208.5 400.841,208.5 400.937,208.5 401.034,208.5 401.13,208.5 401.226,208.5 401.323,208.5 401.419,208.5 401.515,208.5 401.612,208.5 401.708,208.5 401.805,208.5 401.901,208.5 401.997,208.5 402.094,208.5 402.19,208.5 402.287,208.5 402.383,208.5 402.479,208.5 402.576,208.5 402.672,208.5 402.769,208.5 402.865,208.5 402.961,208.5 403.058,208.5 403.154,208.5 403.251,208.5 403.347,208.5 403.443,208.5 403.54,208.5 403.636,208.5 403.732,208.5 403.829,208.5 403.925,208.5 404.022,208.5 404.118,208.5 404.214,208.5 404.311,208.5 404.407,208.5 404.504,208.5 404.6,208.5 404.696,208.5 404.793,208.5 404.889,208.5 404.986,208.5 405.082,208.5 405.178,208.5 405.275,208.5 405.371,208.5 405.467,208.5 405.564,208.5 405.66,208.5 405.757,208.5 405.853,208.5 405.949,208.5 406.046,208.5 406.142,208.5 406.239,208.5 406.335,208.5 406.431,208.5 406.528,208.5 406.624,208.5 406.721,208.5 406.817,208.5 406.913,208.5 407.01,208.5 407.106,208.5 407.202,208.5 407.299,208.5 407.395,208.5 407.492,208.5 407.588,208.5 407.684,208.5 407.781,208.5 407.877,208.5 407.974,208.5 408.07,208.5 408.166,208.5 408.263,208.5 408.359,208.5 408.456,208.5 408.552,208.5 408.648,208.5 408.745,208.5 408.841,208.5 408.937,208.5 409.034,208.5 409.13,208.5 409.227,208.5 409.323,208.5 409.419,208.5 409.516,208.5 409.612,208.5 409.709,208.5 409.805,208.5 409.901,208.5 409.998,208.5 410.094,208.5 410.191,208.5 410.287,208.5 410.383,208.5 410.48,208.5 410.576,208.5 410.672,208.5 410.769,208.5 410.865,208.5 410.962,208.5 411.058,208.5 411.154,208.5 411.251,208.5 411.347,208.5 411.444,208.5 411.54,208.5 411.636,208.5 411.733,208.5 411.829,208.5 411.926,208.5 412.022,208.5 412.118,208.5 412.215,208.5 412.311,208.5 412.408,208.5 412.504,208.5 412.6,208.5 412.697,208.5 412.793,208.5 412.889,208.5 412.986,208.5 413.082,208.5 413.179,208.5 413.275,208.5 413.371,208.5 413.468,208.5 413.564,208.5 413.661,208.5 413.757,208.5 413.853,208.5 413.95,208.5 414.046,208.5 414.143,208.5 414.239,208.5 414.335,208.5 414.432,208.5 414.528,208.5 414.624,208.5 414.721,208.5 414.817,208.5 414.914,208.5 415.01,208.5 415.106,208.5 415.203,208.5 415.299,208.5 415.396,208.5 415.492,208.5 415.588,208.5 415.685,208.5 415.781,208.5 415.878,208.5 415.974,208.5 416.07,208.5 416.167,208.5 416.263,208.5 416.359,208.5 416.456,208.5 416.552,208.5 416.649,208.5 416.745,208.5 416.841,208.5 416.938,208.5 417.034,208.5 417.131,208.5 417.227,208.5 417.323,208.5 417.42,208.5 417.516,208.5 417.613,208.5 417.709,208.5 417.805,208.5 417.902,208.5 417.998,208.5 418.094,208.5 418.191,208.5 418.287,208.5 418.384,208.5 418.48,208.5 418.576,208.5 418.673,208.5 418.769,208.5 418.866,208.5 418.962,208.5 419.058,208.5 419.155,208.5 419.251,208.5 419.348,208.5 419.444,208.5 419.54,208.5 419.637,208.5 419.733,208.5 419.829,208.5 419.926,208.5 420.022,208.5 420.119,208.5 420.215,208.5 420.311,208.5 420.408,208.5 420.504,208.5 420.601,208.5 420.697,208.5 420.793,208.5 420.89,208.5 420.986,208.5 421.083,208.5 421.179,208.5 421.275,208.5 421.372,208.5 421.468,208.5 421.564,208.5 421.661,208.5 421.757,208.5 421.854,208.5 421.95,208.5 422.046,208.5 422.143,208.5 422.239,208.5 422.336,208.5 422.432,208.5 422.528,208.5 422.625,208.5 422.721,208.5 422.818,208.5 422.914,208.5 423.01,208.5 423.107,208.5 423.203,208.5 423.3,208.5 423.396,208.5 423.492,208.5 423.589,208.5 423.685,208.5 423.781,208.5 423.878,208.5 423.974,208.5 424.071,208.5 424.167,208.5 424.263,208.5 424.36,208.5 424.456,208.5 424.553,208.5 424.649,208.5 424.745,208.5 424.842,208.5 424.938,208.5 425.035,208.5 425.131,208.5 425.227,208.5 425.324,208.5 425.42,208.5 425.516,208.5 425.613,208.5 425.709,208.5 425.806,208.5 425.902,208.5 425.998,208.5 426.095,208.5 426.191,208.5 426.288,208.5 426.384,208.5 426.48,208.5 426.577,208.5 426.673,208.5 426.77,208.5 426.866,208.5 426.962,208.5 427.059,208.5 427.155,208.5 427.251,208.5 427.348,208.5 427.444,208.5 427.541,208.5 427.637,208.5 427.733,208.5 427.83,208.5 427.926,208.5 428.023,208.5 428.119,208.5 428.215,208.5 428.312,208.5 428.408,208.5 428.505,208.5 428.601,208.5 428.697,208.5 428.794,208.5 428.89,208.5 428.986,208.5 429.083,208.5 429.179,208.5 429.276,208.5 429.372,208.5 429.468,208.5 429.565,208.5 429.661,208.5 429.758,208.5 429.854,208.5 429.95,208.5 430.047,208.5 430.143,208.5 430.24,208.5 430.336,208.5 430.432,208.5 430.529,208.5 430.625,208.5 430.721,208.5 430.818,208.5 430.914,208.5 431.011,208.5 431.107,208.5 431.203,208.5 431.3,208.5 431.396,208.5 431.493,208.5 431.589,208.5 "
         id="polyline3365"
         transform="rotate(-12.472707,389.58794,39.615856)" />
    </g>
    <text
       xml:space="preserve"
       id="text1049"
       style="font-size:7.05556px;line-height:1.25;font-family:sans-serif;letter-spacing:0px;white-space:pre;shape-inside:url(#rect1051);"
       transform="translate(238.65417,11.1125)"><tspan
         x="-152.40039"
         y="22.841298"><tspan
           style="shape-inside:url(#rect1051)">W</tspan><tspan
           style="font-size:65%;baseline-shift:sub">es</tspan></tspan></text>
    <text
       xml:space="preserve"
       id="text1049-0"
       style="font-size:7.05556px;line-height:1.25;font-family:sans-serif;letter-spacing:0px;white-space:pre;shape-inside:url(#rect1051-7);"
       transform="translate(366.42048,128.74196)"><tspan
         x="-152.40039"
         y="22.841298"><tspan
           style="shape-inside:url(#rect1051-7)">W</tspan><tspan
           style="font-size:65%;baseline-shift:sub">ps</tspan></tspan></text>
    <text
       xml:space="preserve"
       id="text1101"
       style="font-size:7.05556px;line-height:1.25;font-family:sans-serif;letter-spacing:0px;white-space:pre;shape-inside:url(#rect1103);"
       transform="translate(209.55,76.729167)"><tspan
         x="-143.93359"
         y="41.89208"><tspan
           style="shape-inside:url(#rect1103)">g</tspan><tspan
           style="font-size:65%;baseline-shift:sub">ep</tspan></tspan></text>
    <text
       xml:space="preserve"
       id="text1101-9"
       style="font-size:7.05556px;line-height:1.25;font-family:sans-serif;letter-spacing:0px;white-space:pre;shape-inside:url(#rect1103-2);"
       transform="translate(271.69668,127.19355)"><tspan
         x="-143.93359"
         y="41.89208"><tspan
           style="font-size:7.05556px;shape-inside:url(#rect1103-2)">g</tspan><tspan
           style="font-size:4.58611px;baseline-shift:sub">pp</tspan></tspan></text>
    <text
       xml:space="preserve"
       id="text1153"
       style="font-size:7.05556px;line-height:1.25;font-family:sans-serif;letter-spacing:0px;white-space:pre;shape-inside:url(#rect1155);"
       transform="translate(358.24583,-26.9875)"><tspan
         x="-158.75"
         y="72.054189"><tspan
           style="shape-inside:url(#rect1155)">J</tspan><tspan
           style="font-size:65%;baseline-shift:sub">pd</tspan></tspan></text>
    <path
       style="fill:none;stroke:#000000;stroke-width:0.8;stroke-linecap:butt;stroke-linejoin:miter;stroke-miterlimit:4;stroke-dasharray:4.8, 4.8;stroke-dashoffset:0;stroke-opacity:0.503846"
       d="m 132.63933,79.456528 c -25.5592,46.791802 -25.5592,47.469942 -25.5592,47.469942"
       id="path1162" />
    <path
       style="fill:none;stroke:#000000;stroke-width:0.8;stroke-linecap:butt;stroke-linejoin:miter;stroke-miterlimit:4;stroke-dasharray:4.8, 4.8;stroke-dashoffset:0;stroke-opacity:0.507692"
       d="m 203.97364,113.12162 c -17.33008,23.16792 -17.42381,23.54627 -17.42381,23.54627"
       id="path1162-1" />
    <path
       style="fill:none;stroke:#000000;stroke-width:0.8;stroke-linecap:butt;stroke-linejoin:miter;stroke-miterlimit:4;stroke-dasharray:4.8, 4.8;stroke-dashoffset:0;stroke-opacity:0.507692"
       d="m 148.47392,149.28963 c -28.83869,-2.32691 -29.20882,-2.20472 -29.20882,-2.20472"
       id="path1162-1-7" />
  </g>
</svg>
